<?xml version="1.0" encoding="UTF-8" standalone="no"?>
<!-- Created with Inkscape (http://www.inkscape.org/) -->

<svg
   xmlns:dc="http://purl.org/dc/elements/1.1/"
   xmlns:cc="http://creativecommons.org/ns#"
   xmlns:rdf="http://www.w3.org/1999/02/22-rdf-syntax-ns#"
   xmlns:svg="http://www.w3.org/2000/svg"
   xmlns="http://www.w3.org/2000/svg"
   xmlns:sodipodi="http://sodipodi.sourceforge.net/DTD/sodipodi-0.dtd"
   xmlns:inkscape="http://www.inkscape.org/namespaces/inkscape"
   width="100mm"
   height="100mm"
   viewBox="0 0 100 100"
   version="1.1"
   id="svg1222"
   inkscape:version="0.92.4 (5da689c313, 2019-01-14)"
   sodipodi:docname="whitelogo.svg"
   inkscape:export-filename="C:\Users\Core i3\Desktop\CONNECT\IMAGOTIPO.png"
   inkscape:export-xdpi="121.94044"
   inkscape:export-ydpi="121.94044">
  <metadata
     id="metadata20">
    <rdf:RDF>
      <cc:Work
         rdf:about="">
        <dc:format>image/svg+xml</dc:format>
        <dc:type
           rdf:resource="http://purl.org/dc/dcmitype/StillImage" />
        <dc:title></dc:title>
      </cc:Work>
    </rdf:RDF>
  </metadata>
  <sodipodi:namedview
     id="namedview1224"
     pagecolor="#ffffff"
     bordercolor="#666666"
     borderopacity="1.0"
     inkscape:pageshadow="2"
     inkscape:pageopacity="0.0"
     inkscape:pagecheckerboard="0"
     inkscape:document-units="mm"
     showgrid="false"
     inkscape:zoom="0.5297696"
     inkscape:cx="-109.48155"
     inkscape:cy="156.67188"
     inkscape:window-width="1920"
     inkscape:window-height="1017"
     inkscape:window-x="-8"
     inkscape:window-y="-8"
     inkscape:window-maximized="1"
     inkscape:current-layer="layer1" />
  <defs
     id="defs1219" />
  <g
     inkscape:label="Capa 1"
     inkscape:groupmode="layer"
     id="layer1">
    <path
       d="M 51.286312,21.59936 32.630899,32.370127 13.981527,43.137844 h -0.0031 V 21.59936 L 32.630884,10.828592 51.286297,21.59936"
       style="fill:#ffffff;fill-opacity:0.95934957;fill-rule:nonzero;stroke:none;stroke-width:0.0305727"
       id="path68"
       inkscape:connector-curvature="0" />
    <path
       d="M 51.286312,68.210563 32.630899,78.978245 13.978422,68.210563 V 46.672049 h 0.0031 l 3.057285,-1.767106 15.592087,-9.003661 V 57.43976 l 18.655413,10.770803"
       style="fill:#ffffff;fill-opacity:1;fill-rule:nonzero;stroke:none;stroke-width:0.0305727"
       id="path70"
       inkscape:connector-curvature="0" />
    <path
       d="M 72.996002,34.134175 V 55.675747 L 54.343584,66.44343 52.814948,65.559937 51.286312,64.679417 35.688171,55.675747 V 34.134175 l 15.598141,-9.003661 1.528636,-0.880494 1.528636,-0.883553 18.652418,10.767708"
       style="fill:#ffffff;fill-opacity:1;fill-rule:nonzero;stroke:none;stroke-width:0.0305727"
       id="path72"
       inkscape:connector-curvature="0" />
    <path
       style="opacity:0;fill:#b3b3b3;fill-opacity:0.98004402;stroke:#1a1a1a;stroke-width:9.03201008;stroke-opacity:0.94234996"
       d="m 170.42281,229.72067 -35.327,-20.19562 -0.0513,-39.63988 -0.0513,-39.63987 35.21032,-20.29962 35.21032,-20.299621 34.61692,19.985731 34.61692,19.98573 v 40.16227 40.16227 l -30.67372,17.59675 c -16.87054,9.67821 -32.37256,18.67241 -34.44893,19.98712 -3.35115,2.12186 -7.74356,0.12177 -39.10224,-17.80526 z"
       id="path999"
       transform="scale(0.26458333)"
       inkscape:connector-curvature="0" />
    <path
       style="opacity:0;fill:#b3b3b3;fill-opacity:0.98004402;stroke:#1a1a1a;stroke-width:9.03201008;stroke-opacity:0.94234996"
       d="M 88.245909,277.07321 53.796971,257.08587 v -40.0468 -40.04679 l 32.43326,-18.65446 c 17.838299,-10.25995 33.127959,-18.9376 33.977039,-19.28366 0.84907,-0.34606 1.54377,17.18614 1.54377,38.96045 v 39.58965 l 33.97703,19.49966 c 18.68737,10.72481 33.97704,20.04928 33.97704,20.72103 0,0.98602 -62.15587,37.63847 -65.93839,38.88295 -0.58953,0.19396 -16.5739,-8.64165 -35.520811,-19.63469 z"
       id="path1038"
       transform="scale(0.26458333)"
       inkscape:connector-curvature="0" />
    <path
       style="opacity:0;fill:#b3b3b3;fill-opacity:0.98004402;stroke:#1a1a1a;stroke-width:9.03201008;stroke-opacity:0.94234996"
       d="M 88.245909,277.07321 53.796971,257.08587 v -40.0468 -40.04679 l 32.43326,-18.65446 c 17.838299,-10.25995 33.127959,-18.9376 33.977039,-19.28366 0.84907,-0.34606 1.54377,17.18614 1.54377,38.96045 v 39.58965 l 33.97703,19.49966 c 18.68737,10.72481 33.97704,20.04928 33.97704,20.72103 0,0.98602 -62.15587,37.63847 -65.93839,38.88295 -0.58953,0.19396 -16.5739,-8.64165 -35.520811,-19.63469 z"
       id="path1077"
       transform="scale(0.26458333)"
       inkscape:connector-curvature="0" />
    <path
       style="opacity:0;fill:#b3b3b3;fill-opacity:0.98004402;stroke:#1a1a1a;stroke-width:9.03201008;stroke-opacity:0.94234996"
       d="M 88.245909,277.07321 53.796971,257.08587 v -40.0468 -40.04679 l 32.43326,-18.65446 c 17.838299,-10.25995 33.127959,-18.9376 33.977039,-19.28366 0.84907,-0.34606 1.54377,17.18614 1.54377,38.96045 v 39.58965 l 33.97703,19.49966 c 18.68737,10.72481 33.97704,20.04928 33.97704,20.72103 0,0.98602 -62.15587,37.63847 -65.93839,38.88295 -0.58953,0.19396 -16.5739,-8.64165 -35.520811,-19.63469 z"
       id="path1116"
       transform="scale(0.26458333)"
       inkscape:connector-curvature="0" />
    <path
       style="opacity:0;fill:#b3b3b3;fill-opacity:0.98004402;stroke:#1a1a1a;stroke-width:9.03201008;stroke-opacity:0.94234996"
       d="M 53.796971,121.81254 V 82.427193 L 88.603448,62.332025 123.40992,42.236856 157.5197,61.927823 191.62948,81.618789 163.76881,97.699674 C 148.44544,106.54416 117.43313,124.44946 94.852555,137.48923 L 53.796971,161.1979 Z"
       id="path1155"
       transform="scale(0.26458333)"
       inkscape:connector-curvature="0" />
    <path
       style="opacity:0;fill:#b3b3b3;fill-opacity:0.98004402;stroke:#1a1a1a;stroke-width:9.03201008;stroke-opacity:0.94234996"
       d="M 53.796971,121.81254 V 82.427193 L 88.603448,62.332025 123.40992,42.236856 157.5197,61.927823 191.62948,81.618789 163.76881,97.699674 C 148.44544,106.54416 117.43313,124.44946 94.852555,137.48923 L 53.796971,161.1979 Z"
       id="path1194"
       transform="scale(0.26458333)"
       inkscape:connector-curvature="0" />
    <path
       style="opacity:0;fill:#b3b3b3;fill-opacity:0.98004402;stroke:#1a1a1a;stroke-width:9.03201008;stroke-opacity:0.94234996"
       d="m 170.42281,229.72067 -35.327,-20.19562 -0.0513,-39.63988 -0.0513,-39.63987 35.21032,-20.29962 35.21032,-20.299621 34.61692,19.985731 34.61692,19.98573 v 40.16227 40.16227 l -30.67372,17.59675 c -16.87054,9.67821 -32.37256,18.67241 -34.44893,19.98712 -3.35115,2.12186 -7.74356,0.12177 -39.10224,-17.80526 z"
       id="path1233"
       transform="scale(0.26458333)"
       inkscape:connector-curvature="0" />
    <path
       style="opacity:0;fill:#cccccc;fill-opacity:0.98004402;stroke:#1a1a1a;stroke-width:9.03201008;stroke-opacity:0.94234996"
       d="m 170.42281,229.72067 -35.327,-20.19562 -0.0513,-39.63988 -0.0513,-39.63987 35.21032,-20.29962 35.21032,-20.299621 34.61692,19.985731 34.61692,19.98573 v 40.16227 40.16227 l -30.67372,17.59675 c -16.87054,9.67821 -32.37256,18.67241 -34.44893,19.98712 -3.35115,2.12186 -7.74356,0.12177 -39.10224,-17.80526 z"
       id="path1272"
       transform="scale(0.26458333)"
       inkscape:connector-curvature="0" />
    <path
       style="opacity:0;fill:#cccccc;fill-opacity:0.98004402;stroke:#1a1a1a;stroke-width:9.03201008;stroke-opacity:0.94234996"
       d="M 88.245909,277.07321 53.796971,257.08587 v -40.0468 -40.04679 l 32.43326,-18.65446 c 17.838299,-10.25995 33.127959,-18.9376 33.977039,-19.28366 0.84907,-0.34606 1.54377,17.18614 1.54377,38.96045 v 39.58965 l 33.97703,19.49966 c 18.68737,10.72481 33.97704,20.04928 33.97704,20.72103 0,0.98602 -62.15587,37.63847 -65.93839,38.88295 -0.58953,0.19396 -16.5739,-8.64165 -35.520811,-19.63469 z"
       id="path1348"
       transform="scale(0.26458333)"
       inkscape:connector-curvature="0" />
    <path
       style="opacity:0;fill:#cccccc;fill-opacity:0.98004402;stroke:#1a1a1a;stroke-width:9.03201008;stroke-opacity:0.94234996"
       d="M 88.245909,277.07321 53.796971,257.08587 v -40.0468 -40.04679 l 32.43326,-18.65446 c 17.838299,-10.25995 33.127959,-18.9376 33.977039,-19.28366 0.84907,-0.34606 1.54377,17.18614 1.54377,38.96045 v 39.58965 l 33.97703,19.49966 c 18.68737,10.72481 33.97704,20.04928 33.97704,20.72103 0,0.98602 -62.15587,37.63847 -65.93839,38.88295 -0.58953,0.19396 -16.5739,-8.64165 -35.520811,-19.63469 z"
       id="path1387"
       transform="scale(0.26458333)"
       inkscape:connector-curvature="0" />
    <path
       style="opacity:0;fill:#cccccc;fill-opacity:0.98004402;stroke:#1a1a1a;stroke-width:9.03201008;stroke-opacity:0.94234996"
       d="M 88.245909,277.07321 53.796971,257.08587 v -40.0468 -40.04679 l 32.43326,-18.65446 c 17.838299,-10.25995 33.127959,-18.9376 33.977039,-19.28366 0.84907,-0.34606 1.54377,17.18614 1.54377,38.96045 v 39.58965 l 33.97703,19.49966 c 18.68737,10.72481 33.97704,20.04928 33.97704,20.72103 0,0.98602 -62.15587,37.63847 -65.93839,38.88295 -0.58953,0.19396 -16.5739,-8.64165 -35.520811,-19.63469 z"
       id="path1426"
       transform="scale(0.26458333)"
       inkscape:connector-curvature="0" />
  </g>
</svg>
